{
  "accessors": [
    {
      "bufferView": 2,
      "componentType": 5126,
      "count": 12502,
      "max": [
        10.542525291442871,
        10.349611282348633,
        2.2809972763061523
      ],
      "min": [
        -13.66493034362793,
        -9.60129451751709,
        -0.13457459211349487
      ],
      "type": "VEC3"
    },
    {
      "bufferView": 2,
      "byteOffset": 150024,
      "componentType": 5126,
      "count": 12502,
      "max": [
        0.9982593655586243,
        0.9992519021034241,
        0.9999938011169434
      ],
      "min": [
        -0.9995529651641846,
        -0.9998451471328735,
        -0.9999995827674866
      ],
      "type": "VEC3"
    },
    {
      "bufferView": 3,
      "componentType": 5126,
      "count": 12502,
      "max": [
        0.9998613595962524,
        0.9999414086341858,
        1.0,
        1.0
      ],
      "min": [
        -0.9999966025352478,
        -0.9996023178100586,
        -1.0,
        1.0
      ],
      "type": "VEC4"
    },
    {
      "bufferView": 1,
      "componentType": 5126,
      "count": 12502,
      "max": [
        1.0,
        0.9550235867500305
      ],
      "min": [
        -0.16666710376739502,
        0.05468156561255455
      ],
      "type": "VEC2"
    },
    {
      "bufferView": 0,
      "componentType": 5125,
      "count": 60168,
      "type": "SCALAR"
    }
  ],
  "asset": {
    "extras": {
      "author": "romullus (https://sketchfab.com/romullus)",
      "license": "CC-BY-SA-4.0 (http://creativecommons.org/licenses/by-sa/4.0/)",
      "source": "https://sketchfab.com/3d-models/bunch-of-electric-wires-b45c18880f9147429394274411e97dc8",
      "title": "Bunch of Electric Wires"
    },
    "generator": "Sketchfab-13.41.0",
    "version": "2.0"
  },
  "bufferViews": [
    {
      "buffer": 0,
      "byteLength": 240672,
      "name": "floatBufferViews",
      "target": 34963
    },
    {
      "buffer": 0,
      "byteLength": 100016,
      "byteOffset": 240672,
      "byteStride": 8,
      "name": "floatBufferViews",
      "target": 34962
    },
    {
      "buffer": 0,
      "byteLength": 300048,
      "byteOffset": 340688,
      "byteStride": 12,
      "name": "floatBufferViews",
      "target": 34962
    },
    {
      "buffer": 0,
      "byteLength": 200032,
      "byteOffset": 640736,
      "byteStride": 16,
      "name": "floatBufferViews",
      "target": 34962
    }
  ],
  "buffers": [
    {
      "byteLength": 840768,
      "uri": "e.bin"
    }
  ],
  "images": [
    {
      "uri": "textures/Wires_baseColor.png"
    },
    {
      "uri": "textures/Wires_metallicRoughness.png"
    },
    {
      "uri": "textures/Wires_normal.png"
    }
  ],
  "materials": [
    {
      "doubleSided": true,
      "name": "Wires",
      "normalTexture": {
        "index": 2
      },
      "pbrMetallicRoughness": {
        "baseColorTexture": {
          "index": 0
        },
        "metallicRoughnessTexture": {
          "index": 1
        }
      }
    }
  ],
  "meshes": [
    {
      "name": "Electric wires_Wires_0",
      "primitives": [
        {
          "attributes": {
            "NORMAL": 1,
            "POSITION": 0,
            "TANGENT": 2,
            "TEXCOORD_0": 3
          },
          "indices": 4,
          "material": 0,
          "mode": 4
        }
      ]
    }
  ],
  "nodes": [
    {
      "children": [
        1
      ],
      "matrix": [
        1.0,
        0.0,
        0.0,
        0.0,
        0.0,
        2.220446049250313e-16,
        -1.0,
        0.0,
        0.0,
        1.0,
        2.220446049250313e-16,
        0.0,
        0.0,
        0.0,
        0.0,
        1.0
      ],
      "name": "Sketchfab_model"
    },
    {
      "children": [
        2
      ],
      "matrix": [
        1.0,
        0.0,
        0.0,
        0.0,
        0.0,
        0.0,
        1.0,
        0.0,
        0.0,
        -1.0,
        0.0,
        0.0,
        0.0,
        0.0,
        0.0,
        1.0
      ],
      "name": "f7d1ba4e975144a3accbb0780a50ff8b.fbx"
    },
    {
      "children": [
        3
      ],
      "name": "RootNode"
    },
    {
      "children": [
        4
      ],
      "matrix": [
        1.0,
        0.0,
        0.0,
        0.0,
        0.0,
        2.220446049250313e-16,
        -1.0,
        0.0,
        0.0,
        1.0,
        2.220446049250313e-16,
        0.0,
        0.0,
        0.0,
        0.0,
        1.0
      ],
      "name": "Electric wires"
    },
    {
      "mesh": 0,
      "name": "Electric wires_Wires_0"
    }
  ],
  "samplers": [
    {
      "magFilter": 9729,
      "minFilter": 9987,
      "wrapS": 10497,
      "wrapT": 10497
    }
  ],
  "scene": 0,
  "scenes": [
    {
      "name": "Sketchfab_Scene",
      "nodes": [
        0
      ]
    }
  ],
  "textures": [
    {
      "sampler": 0,
      "source": 0
    },
    {
      "sampler": 0,
      "source": 1
    },
    {
      "sampler": 0,
      "source": 2
    }
  ]
}
