{
  "accessors": [
    {
      "bufferView": 2,
      "componentType": 5126,
      "count": 5880,
      "max": [
        -8.413667678833008,
        9.115336418151855,
        4.099431991577148
      ],
      "min": [
        -25.05378532409668,
        -7.285905361175537,
        -0.024901866912841797
      ],
      "type": "VEC3"
    },
    {
      "bufferView": 2,
      "byteOffset": 70560,
      "componentType": 5126,
      "count": 5880,
      "max": [
        0.9992280602455139,
        0.9998571872711182,
        0.999945878982544
      ],
      "min": [
        -0.9999436140060425,
        -0.9982835650444031,
        -0.9982461929321289
      ],
      "type": "VEC3"
    },
    {
      "bufferView": 1,
      "componentType": 5126,
      "count": 5880,
      "max": [
        77.10018920898438,
        7.822544574737549
      ],
      "min": [
        -0.6650000214576721,
        -6.672601699829102
      ],
      "type": "VEC2"
    },
    {
      "bufferView": 0,
      "componentType": 5125,
      "count": 29160,
      "type": "SCALAR"
    },
    {
      "bufferView": 2,
      "byteOffset": 141120,
      "componentType": 5126,
      "count": 7350,
      "max": [
        -8.497620582580566,
        9.232940673828125,
        5.237968921661377
      ],
      "min": [
        -24.903432846069336,
        -7.555725574493408,
        -0.036869779229164124
      ],
      "type": "VEC3"
    },
    {
      "bufferView": 2,
      "byteOffset": 229320,
      "componentType": 5126,
      "count": 7350,
      "max": [
        0.9998754858970642,
        0.9998264908790588,
        0.9999282360076904
      ],
      "min": [
        -0.9999595880508423,
        -0.9999780058860779,
        -0.9999814033508301
      ],
      "type": "VEC3"
    },
    {
      "bufferView": 1,
      "byteOffset": 47040,
      "componentType": 5126,
      "count": 7350,
      "max": [
        77.37837219238281,
        7.822544574737549
      ],
      "min": [
        -0.6650000214576721,
        -6.721652030944824
      ],
      "type": "VEC2"
    },
    {
      "bufferView": 0,
      "byteOffset": 116640,
      "componentType": 5125,
      "count": 36450,
      "type": "SCALAR"
    },
    {
      "bufferView": 2,
      "byteOffset": 317520,
      "componentType": 5126,
      "count": 4404,
      "max": [
        -9.634510040283203,
        7.213752746582031,
        5.09103536605835
      ],
      "min": [
        -24.75543212890625,
        -6.285168647766113,
        -0.016515806317329407
      ],
      "type": "VEC3"
    },
    {
      "bufferView": 2,
      "byteOffset": 370368,
      "componentType": 5126,
      "count": 4404,
      "max": [
        0.9997103810310364,
        0.9994407296180725,
        0.999817430973053
      ],
      "min": [
        -0.9999287724494934,
        -0.9993641376495361,
        -0.9999178647994995
      ],
      "type": "VEC3"
    },
    {
      "bufferView": 1,
      "byteOffset": 105840,
      "componentType": 5126,
      "count": 4404,
      "max": [
        77.74227905273438,
        7.822544574737549
      ],
      "min": [
        -0.6650000214576721,
        -6.785818099975586
      ],
      "type": "VEC2"
    },
    {
      "bufferView": 0,
      "byteOffset": 262440,
      "componentType": 5125,
      "count": 21840,
      "type": "SCALAR"
    },
    {
      "bufferView": 2,
      "byteOffset": 423216,
      "componentType": 5126,
      "count": 833,
      "max": [
        -10.096097946166992,
        4.958621978759766,
        4.67506742477417
      ],
      "min": [
        -22.606592178344727,
        -3.032437324523926,
        -0.022653229534626007
      ],
      "type": "VEC3"
    },
    {
      "bufferView": 2,
      "byteOffset": 433212,
      "componentType": 5126,
      "count": 833,
      "max": [
        0.9990528225898743,
        0.999718189239502,
        0.9994338750839233
      ],
      "min": [
        -0.9970859289169312,
        -0.9981567859649658,
        -0.9699141979217529
      ],
      "type": "VEC3"
    },
    {
      "bufferView": 1,
      "byteOffset": 141072,
      "componentType": 5126,
      "count": 833,
      "max": [
        0.0,
        0.0
      ],
      "min": [
        0.0,
        0.0
      ],
      "type": "VEC2"
    },
    {
      "bufferView": 0,
      "byteOffset": 349800,
      "componentType": 5125,
      "count": 3270,
      "type": "SCALAR"
    }
  ],
  "asset": {
    "extras": {
      "author": "romullus (https://sketchfab.com/romullus)",
      "license": "CC-BY-SA-4.0 (http://creativecommons.org/licenses/by-sa/4.0/)",
      "source": "https://sketchfab.com/3d-models/electrical-wires-bundle-d3128656c3884705816ef7d533b3a441",
      "title": "Electrical Wires Bundle"
    },
    "generator": "Sketchfab-16.65.0",
    "version": "2.0"
  },
  "bufferViews": [
    {
      "buffer": 0,
      "byteLength": 362880,
      "name": "floatBufferViews",
      "target": 34963
    },
    {
      "buffer": 0,
      "byteLength": 147736,
      "byteOffset": 362880,
      "byteStride": 8,
      "name": "floatBufferViews",
      "target": 34962
    },
    {
      "buffer": 0,
      "byteLength": 443208,
      "byteOffset": 510616,
      "byteStride": 12,
      "name": "floatBufferViews",
      "target": 34962
    }
  ],
  "buffers": [
    {
      "byteLength": 953824,
      "uri": "scene.bin"
    }
  ],
  "images": [
    {
      "uri": "textures/wire_neutral_baseColor.png"
    },
    {
      "uri": "textures/wire_neutral_metallicRoughness.png"
    },
    {
      "uri": "textures/wire_line_baseColor.png"
    },
    {
      "uri": "textures/wire_ground_baseColor.png"
    },
    {
      "uri": "textures/copper_baseColor.png"
    },
    {
      "uri": "textures/copper_metallicRoughness.png"
    }
  ],
  "materials": [
    {
      "doubleSided": true,
      "name": "wire_neutral",
      "pbrMetallicRoughness": {
        "baseColorTexture": {
          "index": 0
        },
        "metallicRoughnessTexture": {
          "index": 1
        }
      }
    },
    {
      "doubleSided": true,
      "name": "wire_line",
      "pbrMetallicRoughness": {
        "baseColorTexture": {
          "index": 2
        },
        "metallicRoughnessTexture": {
          "index": 1
        }
      }
    },
    {
      "doubleSided": true,
      "name": "wire_ground",
      "pbrMetallicRoughness": {
        "baseColorTexture": {
          "index": 3
        },
        "metallicRoughnessTexture": {
          "index": 1
        }
      }
    },
    {
      "doubleSided": true,
      "name": "copper",
      "pbrMetallicRoughness": {
        "baseColorTexture": {
          "index": 4
        },
        "metallicRoughnessTexture": {
          "index": 5
        }
      }
    }
  ],
  "meshes": [
    {
      "name": "wires_insulation_wire_neutral_0",
      "primitives": [
        {
          "attributes": {
            "NORMAL": 1,
            "POSITION": 0,
            "TEXCOORD_0": 2
          },
          "indices": 3,
          "material": 0,
          "mode": 4
        }
      ]
    },
    {
      "name": "wires_insulation_wire_line_0",
      "primitives": [
        {
          "attributes": {
            "NORMAL": 5,
            "POSITION": 4,
            "TEXCOORD_0": 6
          },
          "indices": 7,
          "material": 1,
          "mode": 4
        }
      ]
    },
    {
      "name": "wires_insulation_wire_ground_0",
      "primitives": [
        {
          "attributes": {
            "NORMAL": 9,
            "POSITION": 8,
            "TEXCOORD_0": 10
          },
          "indices": 11,
          "material": 2,
          "mode": 4
        }
      ]
    },
    {
      "name": "wires_copper_copper_0",
      "primitives": [
        {
          "attributes": {
            "NORMAL": 13,
            "POSITION": 12,
            "TEXCOORD_0": 14
          },
          "indices": 15,
          "material": 3,
          "mode": 4
        }
      ]
    }
  ],
  "nodes": [
    {
      "children": [
        1
      ],
      "matrix": [
        1.0,
        0.0,
        0.0,
        0.0,
        0.0,
        2.220446049250313e-16,
        -1.0,
        0.0,
        0.0,
        1.0,
        2.220446049250313e-16,
        0.0,
        0.0,
        0.0,
        0.0,
        1.0
      ],
      "name": "Sketchfab_model"
    },
    {
      "children": [
        2
      ],
      "matrix": [
        0.009999999776482582,
        0.0,
        0.0,
        0.0,
        0.0,
        0.0,
        0.009999999776482582,
        0.0,
        0.0,
        -0.009999999776482582,
        0.0,
        0.0,
        0.0,
        0.0,
        0.0,
        1.0
      ],
      "name": "Tangled_wires.fbx"
    },
    {
      "children": [
        3,
        8
      ],
      "name": "RootNode"
    },
    {
      "children": [
        4
      ],
      "matrix": [
        1.0,
        0.0,
        0.0,
        0.0,
        0.0,
        2.220446049250313e-16,
        -1.0,
        0.0,
        0.0,
        1.0,
        2.220446049250313e-16,
        0.0,
        0.0,
        0.0,
        0.0,
        1.0
      ],
      "name": "wires_insulation"
    },
    {
      "children": [
        5,
        6,
        7
      ],
      "matrix": [
        1.0,
        0.0,
        -0.0,
        0.0,
        0.0,
        1.0,
        0.0,
        0.0,
        0.0,
        0.0,
        1.0,
        0.0,
        16.733726501464844,
        -0.8459279537200928,
        0.0,
        1.0
      ],
      "name": "Object_4"
    },
    {
      "mesh": 0,
      "name": "wires_insulation_wire_neutral_0"
    },
    {
      "mesh": 1,
      "name": "wires_insulation_wire_line_0"
    },
    {
      "mesh": 2,
      "name": "wires_insulation_wire_ground_0"
    },
    {
      "children": [
        9
      ],
      "matrix": [
        1.0,
        0.0,
        0.0,
        0.0,
        0.0,
        2.220446049250313e-16,
        -1.0,
        0.0,
        0.0,
        1.0,
        2.220446049250313e-16,
        0.0,
        0.0,
        0.0,
        0.0,
        1.0
      ],
      "name": "wires_copper"
    },
    {
      "children": [
        10
      ],
      "matrix": [
        1.0,
        0.0,
        -0.0,
        0.0,
        0.0,
        1.0,
        0.0,
        0.0,
        0.0,
        0.0,
        1.0,
        0.0,
        16.733726501464844,
        -0.8459279537200928,
        0.0,
        1.0
      ],
      "name": "Object_9"
    },
    {
      "mesh": 3,
      "name": "wires_copper_copper_0"
    }
  ],
  "samplers": [
    {
      "magFilter": 9729,
      "minFilter": 9987,
      "wrapS": 10497,
      "wrapT": 10497
    }
  ],
  "scene": 0,
  "scenes": [
    {
      "name": "Sketchfab_Scene",
      "nodes": [
        0
      ]
    }
  ],
  "textures": [
    {
      "sampler": 0,
      "source": 0
    },
    {
      "sampler": 0,
      "source": 1
    },
    {
      "sampler": 0,
      "source": 2
    },
    {
      "sampler": 0,
      "source": 3
    },
    {
      "sampler": 0,
      "source": 4
    },
    {
      "sampler": 0,
      "source": 5
    }
  ]
}
