{
  "accessors": [
    {
      "bufferView": 2,
      "componentType": 5126,
      "count": 4087,
      "max": [
        15.711058616638184,
        1.6212724447250366,
        3.791929244995117
      ],
      "min": [
        -18.26782989501953,
        -1.621272325515747,
        -1.4693833589553833
      ],
      "type": "VEC3"
    },
    {
      "bufferView": 2,
      "byteOffset": 49044,
      "componentType": 5126,
      "count": 4087,
      "max": [
        1.0,
        1.0,
        1.0
      ],
      "min": [
        -1.0,
        -1.0,
        -1.0
      ],
      "type": "VEC3"
    },
    {
      "bufferView": 3,
      "componentType": 5126,
      "count": 4087,
      "max": [
        0.9999988675117493,
        0.9999487400054932,
        0.9998188018798828,
        1.0
      ],
      "min": [
        -0.9997926950454712,
        -0.999972403049469,
        -0.9998443126678467,
        1.0
      ],
      "type": "VEC4"
    },
    {
      "bufferView": 1,
      "componentType": 5126,
      "count": 4087,
      "max": [
        0.9999999403953552,
        0.9807085394859314
      ],
      "min": [
        -1.3644278595847936e-08,
        -3.918700919314233e-10
      ],
      "type": "VEC2"
    },
    {
      "bufferView": 1,
      "byteOffset": 32696,
      "componentType": 5126,
      "count": 4087,
      "max": [
        0.9999999403953552,
        0.9807085394859314
      ],
      "min": [
        -1.3644278595847936e-08,
        -3.918700919314233e-10
      ],
      "type": "VEC2"
    },
    {
      "bufferView": 1,
      "byteOffset": 65392,
      "componentType": 5126,
      "count": 4087,
      "max": [
        0.9999999403953552,
        0.9807085394859314
      ],
      "min": [
        -1.3644278595847936e-08,
        -3.918700919314233e-10
      ],
      "type": "VEC2"
    },
    {
      "bufferView": 0,
      "componentType": 5125,
      "count": 19380,
      "type": "SCALAR"
    }
  ],
  "asset": {
    "extras": {
      "author": "ForevereQ (https://sketchfab.com/ForevereQ)",
      "license": "CC-BY-4.0 (http://creativecommons.org/licenses/by/4.0/)",
      "source": "https://sketchfab.com/3d-models/metal-gas-pipe-bafcd5e1eacb4f7ba65707df96969e62",
      "title": "Metal gas pipe"
    },
    "generator": "Sketchfab-16.31.0",
    "version": "2.0"
  },
  "bufferViews": [
    {
      "buffer": 0,
      "byteLength": 77520,
      "name": "floatBufferViews",
      "target": 34963
    },
    {
      "buffer": 0,
      "byteLength": 98088,
      "byteOffset": 77520,
      "byteStride": 8,
      "name": "floatBufferViews",
      "target": 34962
    },
    {
      "buffer": 0,
      "byteLength": 98088,
      "byteOffset": 175608,
      "byteStride": 12,
      "name": "floatBufferViews",
      "target": 34962
    },
    {
      "buffer": 0,
      "byteLength": 65392,
      "byteOffset": 273696,
      "byteStride": 16,
      "name": "floatBufferViews",
      "target": 34962
    }
  ],
  "buffers": [
    {
      "byteLength": 339088,
      "uri": "scene.bin"
    }
  ],
  "images": [
    {
      "uri": "textures/rura_baseColor.png"
    },
    {
      "uri": "textures/rura_metallicRoughness.png"
    },
    {
      "uri": "textures/rura_normal.png"
    }
  ],
  "materials": [
    {
      "doubleSided": true,
      "name": "rura",
      "normalTexture": {
        "index": 2
      },
      "pbrMetallicRoughness": {
        "baseColorTexture": {
          "index": 0
        },
        "metallicRoughnessTexture": {
          "index": 1
        }
      }
    }
  ],
  "meshes": [
    {
      "name": "Cylinder.038_rura_0",
      "primitives": [
        {
          "attributes": {
            "NORMAL": 1,
            "POSITION": 0,
            "TANGENT": 2,
            "TEXCOORD_0": 3,
            "TEXCOORD_1": 4,
            "TEXCOORD_2": 5
          },
          "indices": 6,
          "material": 0,
          "mode": 4
        }
      ]
    }
  ],
  "nodes": [
    {
      "children": [
        1
      ],
      "matrix": [
        0.024373391643166542,
        0.0,
        0.0,
        0.0,
        0.0,
        5.4119801180899745e-18,
        -0.024373391643166542,
        0.0,
        0.0,
        0.024373391643166542,
        5.4119801180899745e-18,
        0.0,
        0.0,
        0.0,
        0.0,
        1.0
      ],
      "name": "Sketchfab_model"
    },
    {
      "children": [
        2
      ],
      "matrix": [
        0.009999999776482582,
        0.0,
        0.0,
        0.0,
        0.0,
        0.0,
        0.009999999776482582,
        0.0,
        0.0,
        -0.009999999776482582,
        0.0,
        0.0,
        0.0,
        0.0,
        0.0,
        1.0
      ],
      "name": "a7315ae95273454bade247d66cec3a37.fbx"
    },
    {
      "children": [
        3
      ],
      "name": "RootNode"
    },
    {
      "children": [
        4
      ],
      "matrix": [
        100.0,
        0.0,
        0.0,
        0.0,
        0.0,
        -1.629206793918314e-05,
        -99.99999999999868,
        0.0,
        0.0,
        99.99999999999868,
        -1.629206793918314e-05,
        0.0,
        0.0,
        -375.5409240722656,
        0.0,
        1.0
      ],
      "name": "Cylinder.038"
    },
    {
      "mesh": 0,
      "name": "Cylinder.038_rura_0"
    }
  ],
  "samplers": [
    {
      "magFilter": 9729,
      "minFilter": 9987,
      "wrapS": 10497,
      "wrapT": 10497
    }
  ],
  "scene": 0,
  "scenes": [
    {
      "name": "Sketchfab_Scene",
      "nodes": [
        0
      ]
    }
  ],
  "textures": [
    {
      "sampler": 0,
      "source": 0
    },
    {
      "sampler": 0,
      "source": 1
    },
    {
      "sampler": 0,
      "source": 2
    }
  ]
}
