{
  "accessors": [
    {
      "bufferView": 2,
      "componentType": 5126,
      "count": 39416,
      "max": [
        50.267337799072266,
        31.033613204956055,
        53.50182342529297
      ],
      "min": [
        -78.71644592285156,
        -35.29669189453125,
        -28.54583168029785
      ],
      "type": "VEC3"
    },
    {
      "bufferView": 2,
      "byteOffset": 472992,
      "componentType": 5126,
      "count": 39416,
      "max": [
        0.9991981983184814,
        0.999998927116394,
        0.9999999403953552
      ],
      "min": [
        -0.9993752837181091,
        -0.9999990463256836,
        -0.9999989867210388
      ],
      "type": "VEC3"
    },
    {
      "bufferView": 3,
      "componentType": 5126,
      "count": 39416,
      "max": [
        0.999947190284729,
        0.9960044622421265,
        0.9970779418945313,
        1.0
      ],
      "min": [
        -0.9999735951423645,
        -0.9961819648742676,
        -0.970112681388855,
        1.0
      ],
      "type": "VEC4"
    },
    {
      "bufferView": 1,
      "componentType": 5126,
      "count": 39416,
      "max": [
        1.0010839700698853,
        0.9929789900779724
      ],
      "min": [
        0.004093000199645758,
        0.008601999841630459
      ],
      "type": "VEC2"
    },
    {
      "bufferView": 1,
      "byteOffset": 315328,
      "componentType": 5126,
      "count": 39416,
      "max": [
        1.0010839700698853,
        0.9929789900779724
      ],
      "min": [
        0.004093000199645758,
        0.008601999841630459
      ],
      "type": "VEC2"
    },
    {
      "bufferView": 1,
      "byteOffset": 630656,
      "componentType": 5126,
      "count": 39416,
      "max": [
        1.0010839700698853,
        0.9929789900779724
      ],
      "min": [
        0.004093000199645758,
        0.008601999841630459
      ],
      "type": "VEC2"
    },
    {
      "bufferView": 0,
      "componentType": 5125,
      "count": 216072,
      "type": "SCALAR"
    }
  ],
  "asset": {
    "extras": {
      "author": "Bulat.Shakirov (https://sketchfab.com/Bulat.Shakirov)",
      "license": "CC-BY-4.0 (http://creativecommons.org/licenses/by/4.0/)",
      "source": "https://sketchfab.com/3d-models/wires-fca671dcab294aff97fc422915e791ef",
      "title": "Wires"
    },
    "generator": "Sketchfab-13.66.0",
    "version": "2.0"
  },
  "bufferViews": [
    {
      "buffer": 0,
      "byteLength": 864288,
      "name": "floatBufferViews",
      "target": 34963
    },
    {
      "buffer": 0,
      "byteLength": 945984,
      "byteOffset": 864288,
      "byteStride": 8,
      "name": "floatBufferViews",
      "target": 34962
    },
    {
      "buffer": 0,
      "byteLength": 945984,
      "byteOffset": 1810272,
      "byteStride": 12,
      "name": "floatBufferViews",
      "target": 34962
    },
    {
      "buffer": 0,
      "byteLength": 630656,
      "byteOffset": 2756256,
      "byteStride": 16,
      "name": "floatBufferViews",
      "target": 34962
    }
  ],
  "buffers": [
    {
      "byteLength": 3386912,
      "uri": "scene.bin"
    }
  ],
  "images": [
    {
      "uri": "textures/cablesmat_baseColor.jpeg"
    },
    {
      "uri": "textures/cablesmat_normal.png"
    }
  ],
  "materials": [
    {
      "doubleSided": true,
      "name": "cablesmat",
      "normalTexture": {
        "index": 1
      },
      "pbrMetallicRoughness": {
        "baseColorTexture": {
          "index": 0
        },
        "metallicFactor": 0.37868078482875195,
        "roughnessFactor": 0.23275662890879134
      }
    }
  ],
  "meshes": [
    {
      "name": "Catenary.029_Catenary.045_cablesmat_0",
      "primitives": [
        {
          "attributes": {
            "NORMAL": 1,
            "POSITION": 0,
            "TANGENT": 2,
            "TEXCOORD_0": 3,
            "TEXCOORD_1": 4,
            "TEXCOORD_2": 5
          },
          "indices": 6,
          "material": 0,
          "mode": 4
        }
      ]
    }
  ],
  "nodes": [
    {
      "children": [
        1
      ],
      "matrix": [
        1.0,
        0.0,
        0.0,
        0.0,
        0.0,
        -0.0008891709148881599,
        -0.9999995827674866,
        0.0,
        0.0,
        0.9999995827674866,
        -0.0008891709148881599,
        0.0,
        0.0,
        0.0,
        0.0,
        1.0
      ],
      "name": "Sketchfab_model"
    },
    {
      "children": [
        2
      ],
      "matrix": [
        0.009999999776482582,
        0.0,
        0.0,
        0.0,
        0.0,
        0.0,
        0.009999999776482582,
        0.0,
        0.0,
        -0.009999999776482582,
        0.0,
        0.0,
        0.0,
        0.0,
        0.0,
        1.0
      ],
      "name": "8c0280d2a48941c8a2470084bf5b08a8.fbx"
    },
    {
      "children": [
        3
      ],
      "name": "RootNode"
    },
    {
      "children": [
        4
      ],
      "matrix": [
        100.0,
        0.0,
        0.0,
        0.0,
        0.0,
        99.99999999999866,
        1.6292067073209114e-05,
        0.0,
        0.0,
        -1.6292067073209114e-05,
        99.99999999999866,
        0.0,
        0.0,
        0.0,
        0.0,
        1.0
      ],
      "name": "Catenary.029_Catenary.045"
    },
    {
      "mesh": 0,
      "name": "Catenary.029_Catenary.045_cablesmat_0"
    }
  ],
  "samplers": [
    {
      "magFilter": 9729,
      "minFilter": 9987,
      "wrapS": 10497,
      "wrapT": 10497
    }
  ],
  "scene": 0,
  "scenes": [
    {
      "name": "Sketchfab_Scene",
      "nodes": [
        0
      ]
    }
  ],
  "textures": [
    {
      "sampler": 0,
      "source": 0
    },
    {
      "sampler": 0,
      "source": 1
    }
  ]
}
