{
  "accessors": [
    {
      "bufferView": 2,
      "componentType": 5126,
      "count": 6079,
      "max": [
        -1.4771159887313843,
        0.9785966277122498,
        10.9967622756958
      ],
      "min": [
        -3.434309244155884,
        -1.4144163131713867,
        -0.05312110111117363
      ],
      "type": "VEC3"
    },
    {
      "bufferView": 2,
      "byteOffset": 72948,
      "componentType": 5126,
      "count": 6079,
      "max": [
        1.0,
        1.0,
        1.0
      ],
      "min": [
        -1.0,
        -1.0,
        -1.0
      ],
      "type": "VEC3"
    },
    {
      "bufferView": 1,
      "componentType": 5126,
      "count": 6079,
      "max": [
        2.21484375,
        0.82958984375
      ],
      "min": [
        -1.2568359375,
        0.37158203125
      ],
      "type": "VEC2"
    },
    {
      "bufferView": 0,
      "componentType": 5125,
      "count": 19398,
      "type": "SCALAR"
    },
    {
      "bufferView": 2,
      "byteOffset": 145896,
      "componentType": 5126,
      "count": 5785,
      "max": [
        2.8959593772888184,
        0.9322047233581543,
        4.969717025756836
      ],
      "min": [
        0.9345588684082031,
        -1.460665225982666,
        -0.050708528608083725
      ],
      "type": "VEC3"
    },
    {
      "bufferView": 2,
      "byteOffset": 215316,
      "componentType": 5126,
      "count": 5785,
      "max": [
        1.0,
        1.0,
        1.0
      ],
      "min": [
        -1.0,
        -1.0,
        -1.0
      ],
      "type": "VEC3"
    },
    {
      "bufferView": 1,
      "byteOffset": 48632,
      "componentType": 5126,
      "count": 5785,
      "max": [
        6.69140625,
        0.91827392578125
      ],
      "min": [
        -5.1953125,
        0.34375
      ],
      "type": "VEC2"
    },
    {
      "bufferView": 0,
      "byteOffset": 77592,
      "componentType": 5125,
      "count": 18042,
      "type": "SCALAR"
    },
    {
      "bufferView": 2,
      "byteOffset": 284736,
      "componentType": 5126,
      "count": 6059,
      "max": [
        -4.2893171310424805,
        1.0893609523773193,
        6.979346752166748
      ],
      "min": [
        -6.246512413024902,
        -1.303652286529541,
        -0.051203109323978424
      ],
      "type": "VEC3"
    },
    {
      "bufferView": 2,
      "byteOffset": 357444,
      "componentType": 5126,
      "count": 6059,
      "max": [
        1.0,
        1.0,
        1.0
      ],
      "min": [
        -1.0,
        -1.0,
        -1.0
      ],
      "type": "VEC3"
    },
    {
      "bufferView": 1,
      "byteOffset": 94912,
      "componentType": 5126,
      "count": 6059,
      "max": [
        4.2109375,
        0.83203125
      ],
      "min": [
        -3.30078125,
        0.3623046875
      ],
      "type": "VEC2"
    },
    {
      "bufferView": 0,
      "byteOffset": 149760,
      "componentType": 5125,
      "count": 19194,
      "type": "SCALAR"
    },
    {
      "bufferView": 2,
      "byteOffset": 430152,
      "componentType": 5126,
      "count": 5236,
      "max": [
        13.02345085144043,
        0.9844796061515808,
        8.98747730255127
      ],
      "min": [
        11.055418968200684,
        -1.4173835515975952,
        -0.05100436136126518
      ],
      "type": "VEC3"
    },
    {
      "bufferView": 2,
      "byteOffset": 492984,
      "componentType": 5126,
      "count": 5236,
      "max": [
        1.0,
        1.0,
        1.0
      ],
      "min": [
        -1.0,
        -1.0,
        -1.0
      ],
      "type": "VEC3"
    },
    {
      "bufferView": 1,
      "byteOffset": 143384,
      "componentType": 5126,
      "count": 5236,
      "max": [
        1.728515625,
        0.831787109375
      ],
      "min": [
        -0.69873046875,
        0.37109375
      ],
      "type": "VEC2"
    },
    {
      "bufferView": 0,
      "byteOffset": 226536,
      "componentType": 5125,
      "count": 13539,
      "type": "SCALAR"
    },
    {
      "bufferView": 2,
      "byteOffset": 555816,
      "componentType": 5126,
      "count": 1179,
      "max": [
        10.749799728393555,
        0.9721558094024658,
        3.0764589309692383
      ],
      "min": [
        7.681896686553955,
        -0.9721558094024658,
        9.999999717180685e-10
      ],
      "type": "VEC3"
    },
    {
      "bufferView": 2,
      "byteOffset": 569964,
      "componentType": 5126,
      "count": 1179,
      "max": [
        1.0,
        1.0,
        1.0
      ],
      "min": [
        -1.0,
        -1.0,
        -1.0
      ],
      "type": "VEC3"
    },
    {
      "bufferView": 1,
      "byteOffset": 185272,
      "componentType": 5126,
      "count": 1179,
      "max": [
        1.5673828125,
        0.909912109375
      ],
      "min": [
        -0.262939453125,
        0.09765625
      ],
      "type": "VEC2"
    },
    {
      "bufferView": 0,
      "byteOffset": 280692,
      "componentType": 5125,
      "count": 4044,
      "type": "SCALAR"
    },
    {
      "bufferView": 2,
      "byteOffset": 584112,
      "componentType": 5126,
      "count": 1452,
      "max": [
        7.307124137878418,
        0.9824045300483704,
        5.020803928375244
      ],
      "min": [
        5.349930286407471,
        -0.9747901558876038,
        0.00037856699782423675
      ],
      "type": "VEC3"
    },
    {
      "bufferView": 2,
      "byteOffset": 601536,
      "componentType": 5126,
      "count": 1452,
      "max": [
        1.0,
        0.9993435144424438,
        1.0
      ],
      "min": [
        -1.0,
        -1.0,
        -1.0
      ],
      "type": "VEC3"
    },
    {
      "bufferView": 1,
      "byteOffset": 194704,
      "componentType": 5126,
      "count": 1452,
      "max": [
        2.10546875,
        0.91827392578125
      ],
      "min": [
        -4.65625,
        0.41259765625
      ],
      "type": "VEC2"
    },
    {
      "bufferView": 0,
      "byteOffset": 296868,
      "componentType": 5125,
      "count": 4374,
      "type": "SCALAR"
    },
    {
      "bufferView": 2,
      "byteOffset": 618960,
      "componentType": 5126,
      "count": 3420,
      "max": [
        5.13823127746582,
        0.9824045300483704,
        5.020803928375244
      ],
      "min": [
        3.176830768585205,
        -0.9784542918205261,
        0.00037856699782423675
      ],
      "type": "VEC3"
    },
    {
      "bufferView": 2,
      "byteOffset": 660000,
      "componentType": 5126,
      "count": 3420,
      "max": [
        1.0,
        1.0,
        1.0
      ],
      "min": [
        -1.0,
        -1.0,
        -1.0
      ],
      "type": "VEC3"
    },
    {
      "bufferView": 1,
      "byteOffset": 206320,
      "componentType": 5126,
      "count": 3420,
      "max": [
        3.123046875,
        0.91827392578125
      ],
      "min": [
        -5.38671875,
        0.34375
      ],
      "type": "VEC2"
    },
    {
      "bufferView": 0,
      "byteOffset": 314364,
      "componentType": 5125,
      "count": 10590,
      "type": "SCALAR"
    },
    {
      "bufferView": 2,
      "byteOffset": 701040,
      "componentType": 5126,
      "count": 1463,
      "max": [
        0.7674105763435364,
        0.9785963892936707,
        2.511359691619873
      ],
      "min": [
        -1.189784049987793,
        -0.9785962700843811,
        -0.05100436136126518
      ],
      "type": "VEC3"
    },
    {
      "bufferView": 2,
      "byteOffset": 718596,
      "componentType": 5126,
      "count": 1463,
      "max": [
        1.0,
        1.0,
        1.0
      ],
      "min": [
        -1.0,
        -0.9999999403953552,
        -1.0
      ],
      "type": "VEC3"
    },
    {
      "bufferView": 1,
      "byteOffset": 233680,
      "componentType": 5126,
      "count": 1463,
      "max": [
        1.453125,
        0.8294677734375
      ],
      "min": [
        -0.22509765625,
        0.3740234375
      ],
      "type": "VEC2"
    },
    {
      "bufferView": 0,
      "byteOffset": 356724,
      "componentType": 5125,
      "count": 4404,
      "type": "SCALAR"
    },
    {
      "bufferView": 2,
      "byteOffset": 736152,
      "componentType": 5126,
      "count": 79,
      "max": [
        -1.9572632312774658,
        -1.1613210439682007,
        6.873844623565674
      ],
      "min": [
        -2.9494762420654297,
        -1.3975834846496582,
        3.943068504333496
      ],
      "type": "VEC3"
    },
    {
      "bufferView": 2,
      "byteOffset": 737100,
      "componentType": 5126,
      "count": 79,
      "max": [
        0.9711989760398865,
        -0.2374017834663391,
        0.951449990272522
      ],
      "min": [
        -0.971299409866333,
        -1.0,
        -0.9709067344665527
      ],
      "type": "VEC3"
    },
    {
      "bufferView": 1,
      "byteOffset": 245384,
      "componentType": 5126,
      "count": 79,
      "max": [
        0.7265625,
        0.9681396484375
      ],
      "min": [
        0.35546875,
        0.0283203125
      ],
      "type": "VEC2"
    },
    {
      "bufferView": 0,
      "byteOffset": 374340,
      "componentType": 5125,
      "count": 411,
      "type": "SCALAR"
    },
    {
      "bufferView": 2,
      "byteOffset": 738048,
      "componentType": 5126,
      "count": 79,
      "max": [
        -4.769464015960693,
        -1.0505564212799072,
        4.95025634765625
      ],
      "min": [
        -5.761677265167236,
        -1.2868191003799438,
        2.019479513168335
      ],
      "type": "VEC3"
    },
    {
      "bufferView": 2,
      "byteOffset": 738996,
      "componentType": 5126,
      "count": 79,
      "max": [
        0.9711987376213074,
        -0.23739996552467346,
        0.9514476656913757
      ],
      "min": [
        -0.9713000655174255,
        -1.0,
        -0.9709064960479736
      ],
      "type": "VEC3"
    },
    {
      "bufferView": 1,
      "byteOffset": 246016,
      "componentType": 5126,
      "count": 79,
      "max": [
        0.73193359375,
        0.968017578125
      ],
      "min": [
        0.36083984375,
        0.02783203125
      ],
      "type": "VEC2"
    },
    {
      "bufferView": 0,
      "byteOffset": 375984,
      "componentType": 5125,
      "count": 411,
      "type": "SCALAR"
    },
    {
      "bufferView": 2,
      "byteOffset": 739944,
      "componentType": 5126,
      "count": 49,
      "max": [
        12.537653923034668,
        -1.1613203287124634,
        5.939066410064697
      ],
      "min": [
        11.545435905456543,
        -1.3976093530654907,
        3.0082926750183105
      ],
      "type": "VEC3"
    },
    {
      "bufferView": 2,
      "byteOffset": 740532,
      "componentType": 5126,
      "count": 49,
      "max": [
        0.9696825742721558,
        -0.17980393767356873,
        0.9383785128593445
      ],
      "min": [
        -0.9730886220932007,
        -0.9999874234199524,
        -0.9683297276496887
      ],
      "type": "VEC3"
    },
    {
      "bufferView": 1,
      "byteOffset": 246648,
      "componentType": 5126,
      "count": 49,
      "max": [
        0.72412109375,
        0.9739990234375
      ],
      "min": [
        0.357177734375,
        0.0341796875
      ],
      "type": "VEC2"
    },
    {
      "bufferView": 0,
      "byteOffset": 377628,
      "componentType": 5125,
      "count": 237,
      "type": "SCALAR"
    },
    {
      "bufferView": 2,
      "byteOffset": 741120,
      "componentType": 5126,
      "count": 61,
      "max": [
        2.4111716747283936,
        -1.2075704336166382,
        3.0503811836242676
      ],
      "min": [
        1.418920636177063,
        -1.4438326358795166,
        2.063565254211426
      ],
      "type": "VEC3"
    },
    {
      "bufferView": 2,
      "byteOffset": 741852,
      "componentType": 5126,
      "count": 61,
      "max": [
        0.9656238555908203,
        -0.23877888917922974,
        0.9709426164627075
      ],
      "min": [
        -0.9656242728233337,
        -0.9999999403953552,
        -0.9497250914573669
      ],
      "type": "VEC3"
    },
    {
      "bufferView": 1,
      "byteOffset": 247040,
      "componentType": 5126,
      "count": 61,
      "max": [
        0.3505859375,
        0.37841796875
      ],
      "min": [
        0.01059722900390625,
        0.0400390625
      ],
      "type": "VEC2"
    },
    {
      "bufferView": 0,
      "byteOffset": 378576,
      "componentType": 5125,
      "count": 315,
      "type": "SCALAR"
    }
  ],
  "asset": {
    "extras": {
      "author": "Friteabc (https://sketchfab.com/Friteabc)",
      "license": "CC-BY-4.0 (http://creativecommons.org/licenses/by/4.0/)",
      "source": "https://sketchfab.com/3d-models/big-gas-pipe-part1-poppy-playtime-chapter-4-48eac23fadbf422ca91b87a466f5d902",
      "title": "Big Gas Pipe part1 poppy playtime chapter 4"
    },
    "generator": "Sketchfab-16.60.0",
    "version": "2.0"
  },
  "bufferViews": [
    {
      "buffer": 0,
      "byteLength": 379836,
      "name": "floatBufferViews",
      "target": 34963
    },
    {
      "buffer": 0,
      "byteLength": 247528,
      "byteOffset": 379836,
      "byteStride": 8,
      "name": "floatBufferViews",
      "target": 34962
    },
    {
      "buffer": 0,
      "byteLength": 742584,
      "byteOffset": 627364,
      "byteStride": 12,
      "name": "floatBufferViews",
      "target": 34962
    }
  ],
  "buffers": [
    {
      "byteLength": 1369948,
      "uri": "scene.bin"
    }
  ],
  "extensionsUsed": [
    "KHR_materials_clearcoat"
  ],
  "images": [
    {
      "uri": "textures/MI_PaintedMetalTrim_baseColor.png"
    },
    {
      "uri": "textures/MI_PaintedMetalTrim_1_baseColor.png"
    },
    {
      "uri": "textures/MI_PaintedMetalTrim_2_baseColor.png"
    },
    {
      "uri": "textures/MI_PaintedMetalTrim_3_baseColor.png"
    },
    {
      "uri": "textures/MI_PaintedMetalTrim_4_baseColor.png"
    },
    {
      "uri": "textures/MI_PaintedMetalTrim_5_baseColor.png"
    },
    {
      "uri": "textures/MI_PaintedMetalTrim_6_baseColor.png"
    },
    {
      "uri": "textures/MI_PaintedMetalTrim_Red_baseColor.png"
    },
    {
      "uri": "textures/MI_RedSmokeTubes_baseColor.png"
    },
    {
      "uri": "textures/MI_RedSmokeTubes_1_baseColor.png"
    },
    {
      "uri": "textures/MI_RedSmokeTubes_2_baseColor.png"
    },
    {
      "uri": "textures/MI_RedSmokeTubes_Circle_baseColor.png"
    }
  ],
  "materials": [
    {
      "doubleSided": true,
      "name": "MI_PaintedMetalTrim",
      "pbrMetallicRoughness": {
        "baseColorTexture": {
          "index": 0
        },
        "metallicFactor": 0.0
      }
    },
    {
      "doubleSided": true,
      "name": "MI_PaintedMetalTrim_1",
      "pbrMetallicRoughness": {
        "baseColorTexture": {
          "index": 1
        },
        "metallicFactor": 0.0
      }
    },
    {
      "doubleSided": true,
      "name": "MI_PaintedMetalTrim_2",
      "pbrMetallicRoughness": {
        "baseColorTexture": {
          "index": 2
        },
        "metallicFactor": 0.0
      }
    },
    {
      "doubleSided": true,
      "name": "MI_PaintedMetalTrim_3",
      "pbrMetallicRoughness": {
        "baseColorTexture": {
          "index": 3
        },
        "metallicFactor": 0.0
      }
    },
    {
      "doubleSided": true,
      "name": "MI_PaintedMetalTrim_4",
      "pbrMetallicRoughness": {
        "baseColorTexture": {
          "index": 4
        },
        "metallicFactor": 0.0
      }
    },
    {
      "doubleSided": true,
      "name": "MI_PaintedMetalTrim_5",
      "pbrMetallicRoughness": {
        "baseColorTexture": {
          "index": 5
        },
        "metallicFactor": 0.0
      }
    },
    {
      "doubleSided": true,
      "name": "MI_PaintedMetalTrim_6",
      "pbrMetallicRoughness": {
        "baseColorTexture": {
          "index": 6
        },
        "metallicFactor": 0.0
      }
    },
    {
      "doubleSided": true,
      "name": "MI_PaintedMetalTrim_Red",
      "pbrMetallicRoughness": {
        "baseColorTexture": {
          "index": 7
        },
        "metallicFactor": 0.0
      }
    },
    {
      "doubleSided": true,
      "name": "MI_RedSmokeTubes",
      "pbrMetallicRoughness": {
        "baseColorTexture": {
          "index": 8
        },
        "metallicFactor": 0.0
      }
    },
    {
      "doubleSided": true,
      "extensions": {
        "KHR_materials_clearcoat": {
          "clearcoatFactor": 1.0,
          "clearcoatRoughnessFactor": 0.04
        }
      },
      "name": "MI_RedSmokeTubes_1",
      "pbrMetallicRoughness": {
        "baseColorTexture": {
          "index": 9
        },
        "metallicFactor": 0.0
      }
    },
    {
      "doubleSided": true,
      "name": "MI_RedSmokeTubes_2",
      "pbrMetallicRoughness": {
        "baseColorTexture": {
          "index": 10
        },
        "metallicFactor": 0.0
      }
    },
    {
      "doubleSided": true,
      "name": "MI_RedSmokeTubes_Circle",
      "pbrMetallicRoughness": {
        "baseColorTexture": {
          "index": 11
        },
        "metallicFactor": 0.0
      }
    }
  ],
  "meshes": [
    {
      "name": "Object_0",
      "primitives": [
        {
          "attributes": {
            "NORMAL": 1,
            "POSITION": 0,
            "TEXCOORD_0": 2
          },
          "indices": 3,
          "material": 0,
          "mode": 4
        }
      ]
    },
    {
      "name": "Object_1",
      "primitives": [
        {
          "attributes": {
            "NORMAL": 5,
            "POSITION": 4,
            "TEXCOORD_0": 6
          },
          "indices": 7,
          "material": 1,
          "mode": 4
        }
      ]
    },
    {
      "name": "Object_2",
      "primitives": [
        {
          "attributes": {
            "NORMAL": 9,
            "POSITION": 8,
            "TEXCOORD_0": 10
          },
          "indices": 11,
          "material": 2,
          "mode": 4
        }
      ]
    },
    {
      "name": "Object_3",
      "primitives": [
        {
          "attributes": {
            "NORMAL": 13,
            "POSITION": 12,
            "TEXCOORD_0": 14
          },
          "indices": 15,
          "material": 3,
          "mode": 4
        }
      ]
    },
    {
      "name": "Object_4",
      "primitives": [
        {
          "attributes": {
            "NORMAL": 17,
            "POSITION": 16,
            "TEXCOORD_0": 18
          },
          "indices": 19,
          "material": 4,
          "mode": 4
        }
      ]
    },
    {
      "name": "Object_5",
      "primitives": [
        {
          "attributes": {
            "NORMAL": 21,
            "POSITION": 20,
            "TEXCOORD_0": 22
          },
          "indices": 23,
          "material": 5,
          "mode": 4
        }
      ]
    },
    {
      "name": "Object_6",
      "primitives": [
        {
          "attributes": {
            "NORMAL": 25,
            "POSITION": 24,
            "TEXCOORD_0": 26
          },
          "indices": 27,
          "material": 6,
          "mode": 4
        }
      ]
    },
    {
      "name": "Object_7",
      "primitives": [
        {
          "attributes": {
            "NORMAL": 29,
            "POSITION": 28,
            "TEXCOORD_0": 30
          },
          "indices": 31,
          "material": 7,
          "mode": 4
        }
      ]
    },
    {
      "name": "Object_8",
      "primitives": [
        {
          "attributes": {
            "NORMAL": 33,
            "POSITION": 32,
            "TEXCOORD_0": 34
          },
          "indices": 35,
          "material": 8,
          "mode": 4
        }
      ]
    },
    {
      "name": "Object_9",
      "primitives": [
        {
          "attributes": {
            "NORMAL": 37,
            "POSITION": 36,
            "TEXCOORD_0": 38
          },
          "indices": 39,
          "material": 9,
          "mode": 4
        }
      ]
    },
    {
      "name": "Object_10",
      "primitives": [
        {
          "attributes": {
            "NORMAL": 41,
            "POSITION": 40,
            "TEXCOORD_0": 42
          },
          "indices": 43,
          "material": 10,
          "mode": 4
        }
      ]
    },
    {
      "name": "Object_11",
      "primitives": [
        {
          "attributes": {
            "NORMAL": 45,
            "POSITION": 44,
            "TEXCOORD_0": 46
          },
          "indices": 47,
          "material": 11,
          "mode": 4
        }
      ]
    }
  ],
  "nodes": [
    {
      "children": [
        1
      ],
      "matrix": [
        1.0,
        0.0,
        0.0,
        0.0,
        0.0,
        2.220446049250313e-16,
        -1.0,
        0.0,
        0.0,
        1.0,
        2.220446049250313e-16,
        0.0,
        0.0,
        0.0,
        0.0,
        1.0
      ],
      "name": "Sketchfab_model"
    },
    {
      "children": [
        2,
        3,
        4,
        5,
        6,
        7,
        8,
        9,
        10,
        11,
        12,
        13
      ],
      "name": "SM_BigGasPipe_11M_A.obj.cleaner.materialmerger.gles"
    },
    {
      "mesh": 0,
      "name": "Object_2"
    },
    {
      "mesh": 1,
      "name": "Object_3"
    },
    {
      "mesh": 2,
      "name": "Object_4"
    },
    {
      "mesh": 3,
      "name": "Object_5"
    },
    {
      "mesh": 4,
      "name": "Object_6"
    },
    {
      "mesh": 5,
      "name": "Object_7"
    },
    {
      "mesh": 6,
      "name": "Object_8"
    },
    {
      "mesh": 7,
      "name": "Object_9"
    },
    {
      "mesh": 8,
      "name": "Object_10"
    },
    {
      "mesh": 9,
      "name": "Object_11"
    },
    {
      "mesh": 10,
      "name": "Object_12"
    },
    {
      "mesh": 11,
      "name": "Object_13"
    }
  ],
  "samplers": [
    {
      "magFilter": 9729,
      "minFilter": 9987,
      "wrapS": 10497,
      "wrapT": 10497
    }
  ],
  "scene": 0,
  "scenes": [
    {
      "name": "Sketchfab_Scene",
      "nodes": [
        0
      ]
    }
  ],
  "textures": [
    {
      "sampler": 0,
      "source": 0
    },
    {
      "sampler": 0,
      "source": 1
    },
    {
      "sampler": 0,
      "source": 2
    },
    {
      "sampler": 0,
      "source": 3
    },
    {
      "sampler": 0,
      "source": 4
    },
    {
      "sampler": 0,
      "source": 5
    },
    {
      "sampler": 0,
      "source": 6
    },
    {
      "sampler": 0,
      "source": 7
    },
    {
      "sampler": 0,
      "source": 8
    },
    {
      "sampler": 0,
      "source": 9
    },
    {
      "sampler": 0,
      "source": 10
    },
    {
      "sampler": 0,
      "source": 11
    }
  ]
}
