{
  "accessors": [
    {
      "bufferView": 2,
      "componentType": 5126,
      "count": 1682,
      "max": [
        23.225812911987305,
        38.941505432128906,
        31.437490463256836
      ],
      "min": [
        -14.289852142333984,
        5.87479829788208,
        -30.237489700317383
      ],
      "type": "VEC3"
    },
    {
      "bufferView": 2,
      "byteOffset": 20184,
      "componentType": 5126,
      "count": 1682,
      "max": [
        1.0,
        1.0,
        1.0
      ],
      "min": [
        -1.0,
        -1.0,
        -1.0
      ],
      "type": "VEC3"
    },
    {
      "bufferView": 1,
      "componentType": 5126,
      "count": 1682,
      "max": [
        0.9890124797821045,
        0.9813501834869385
      ],
      "min": [
        0.021521225571632385,
        0.011395186185836792
      ],
      "type": "VEC2"
    },
    {
      "bufferView": 0,
      "componentType": 5125,
      "count": 5097,
      "type": "SCALAR"
    }
  ],
  "asset": {
    "extras": {
      "author": "Jordi Kruk (https://sketchfab.com/JordiKruk)",
      "license": "CC-BY-4.0 (http://creativecommons.org/licenses/by/4.0/)",
      "source": "https://sketchfab.com/3d-models/heavy-robot-enemy-for-overgrown-ce704e45239249b6a4466f3542b5f5ec",
      "title": "Heavy robot Enemy for \"Overgrown\""
    },
    "generator": "Sketchfab-12.66.0",
    "version": "2.0"
  },
  "bufferViews": [
    {
      "buffer": 0,
      "byteLength": 20388,
      "name": "floatBufferViews",
      "target": 34963
    },
    {
      "buffer": 0,
      "byteLength": 13456,
      "byteOffset": 20388,
      "byteStride": 8,
      "name": "floatBufferViews",
      "target": 34962
    },
    {
      "buffer": 0,
      "byteLength": 40368,
      "byteOffset": 33844,
      "byteStride": 12,
      "name": "floatBufferViews",
      "target": 34962
    }
  ],
  "buffers": [
    {
      "byteLength": 74212,
      "uri": "scene.bin"
    }
  ],
  "images": [
    {
      "uri": "textures/RobotEnemy2_MAT_baseColor.png"
    },
    {
      "uri": "textures/RobotEnemy2_MAT_emissive.png"
    }
  ],
  "materials": [
    {
      "doubleSided": true,
      "emissiveFactor": [
        1.0,
        1.0,
        1.0
      ],
      "emissiveTexture": {
        "index": 1
      },
      "name": "RobotEnemy2_MAT",
      "pbrMetallicRoughness": {
        "baseColorTexture": {
          "index": 0
        },
        "metallicFactor": 0.0,
        "roughnessFactor": 0.6
      }
    }
  ],
  "meshes": [
    {
      "name": "RobotEnemy2_RobotEnemy2_MAT_0",
      "primitives": [
        {
          "attributes": {
            "NORMAL": 1,
            "POSITION": 0,
            "TEXCOORD_0": 2
          },
          "indices": 3,
          "material": 0,
          "mode": 4
        }
      ]
    }
  ],
  "nodes": [
    {
      "children": [
        1
      ],
      "matrix": [
        2.220446049250313e-16,
        0.0,
        1.0,
        0.0,
        1.0,
        2.8327693431939995e-16,
        -2.2204460492503123e-16,
        0.0,
        -2.832769343193999e-16,
        1.0,
        0.0,
        0.0,
        5.067828178405762,
        8.588564684067863e-16,
        -3.867945671081543,
        1.0
      ],
      "name": "Sketchfab_model"
    },
    {
      "children": [
        2
      ],
      "matrix": [
        1.0,
        0.0,
        0.0,
        0.0,
        0.0,
        0.0,
        1.0,
        0.0,
        0.0,
        -1.0,
        0.0,
        0.0,
        0.0,
        0.0,
        0.0,
        1.0
      ],
      "name": "161be35bbf6242aba82d58085d1f9ec3.fbx"
    },
    {
      "children": [
        3
      ],
      "name": "RootNode"
    },
    {
      "children": [
        4
      ],
      "name": "RobotEnemy2"
    },
    {
      "mesh": 0,
      "name": "RobotEnemy2_RobotEnemy2_MAT_0"
    }
  ],
  "samplers": [
    {
      "magFilter": 9729,
      "minFilter": 9987,
      "wrapS": 10497,
      "wrapT": 10497
    }
  ],
  "scene": 0,
  "scenes": [
    {
      "name": "Sketchfab_Scene",
      "nodes": [
        0
      ]
    }
  ],
  "textures": [
    {
      "sampler": 0,
      "source": 0
    },
    {
      "sampler": 0,
      "source": 1
    }
  ]
}
